<svg width="20" height="20" viewBox="0 0 20 20" fill="none" xmlns="http://www.w3.org/2000/svg">
<path fill-rule="evenodd" clip-rule="evenodd" d="M0 9.98077C0 4.63275 4.579 0.115387 10 0.115387C15.421 0.115387 20 4.63275 20 9.98077C20 13.1278 18.408 15.977 16 17.7981V17.8731H15.898C14.23 19.1013 12.187 19.8462 10 19.8462C7.813 19.8462 5.77 19.1013 4.102 17.8731H4V17.7981C1.592 15.977 0 13.1268 0 9.98077ZM7.12347 15.1463C6.59154 15.5685 6.22136 16.1569 6.074 16.8145C7.242 17.4824 8.584 17.8731 10 17.8731C11.416 17.8731 12.758 17.4824 13.926 16.8145C13.7785 16.157 13.4082 15.5686 12.8764 15.1465C12.3445 14.7243 11.6827 14.4936 11 14.4922H9C8.3173 14.4934 7.6554 14.7241 7.12347 15.1463ZM13.7677 13.3465C14.5877 13.8849 15.2286 14.6499 15.61 15.5458C17.077 14.1065 18 12.1275 18 9.98077C18 5.70216 14.337 2.08846 10 2.08846C5.663 2.08846 2 5.70216 2 9.98077C2 12.1275 2.923 14.1065 4.39 15.5458C4.77144 14.6499 5.41227 13.8849 6.23227 13.3465C7.05227 12.8082 8.01501 12.5204 9 12.5191H11C11.985 12.5204 12.9477 12.8082 13.7677 13.3465ZM6 8.00769C6 5.75838 7.72 4.06154 10 4.06154C12.28 4.06154 14 5.75838 14 8.00769C14 10.257 12.28 11.9538 10 11.9538C7.72 11.9538 6 10.257 6 8.00769ZM8 8.00769C8 9.16983 8.822 9.98077 10 9.98077C11.178 9.98077 12 9.16983 12 8.00769C12 6.84555 11.178 6.03461 10 6.03461C8.822 6.03461 8 6.84555 8 8.00769Z" fill="#9B9B9B"/>
</svg>
